<svg width="40" height="46" viewBox="0 0 40 46" fill="none" xmlns="http://www.w3.org/2000/svg">
<path d="M23.7431 3.46348L24.3037 9.12188C24.5637 11.7385 27.2482 13.3251 29.5917 12.2466L34.6602 9.91344C38.7967 8.00887 42.0823 13.8366 38.405 16.55L33.8971 19.8753C31.8136 21.4134 31.8136 24.5866 33.8971 26.1247L38.405 29.45C42.0823 32.1634 38.7967 37.9911 34.6602 36.0866L29.5917 33.7534C27.2482 32.6749 24.5637 34.2615 24.3037 36.8781L23.7431 42.5365C23.2873 47.1545 16.7127 47.1545 16.2569 42.5365L15.6963 36.8781C15.4363 34.2615 12.7518 32.6749 10.4083 33.7534L5.3398 36.0866C1.20326 37.9911 -2.08232 32.1634 1.59497 29.45L6.10294 26.1247C8.1864 24.5866 8.1864 21.4134 6.10294 19.8753L1.59497 16.55C-2.08232 13.8366 1.20326 8.00887 5.3398 9.91344L10.4083 12.2466C12.7518 13.3251 15.4363 11.7385 15.6963 9.12188L16.2569 3.46348C16.7127 -1.15449 23.2873 -1.15449 23.7431 3.46348Z" fill="black"/>
<path d="M21.4973 15.3553L21.7215 17.5694C21.8255 18.5933 22.8993 19.2142 23.8367 18.7922L25.8641 17.8792C27.5187 17.1339 28.8329 19.4143 27.362 20.4761L25.5588 21.7773C24.7254 22.3792 24.7254 23.6208 25.5588 24.2227L27.362 25.5239C28.8329 26.5857 27.5187 28.8661 25.8641 28.1208L23.8367 27.2078C22.8993 26.7858 21.8255 27.4067 21.7215 28.4306L21.4973 30.6447C21.3149 32.4518 18.6851 32.4518 18.5027 30.6447L18.2785 28.4306C18.1745 27.4067 17.1007 26.7858 16.1633 27.2078L14.1359 28.1208C12.4813 28.8661 11.1671 26.5857 12.638 25.5239L14.4412 24.2227C15.2746 23.6208 15.2746 22.3792 14.4412 21.7773L12.638 20.4761C11.1671 19.4143 12.4813 17.1339 14.1359 17.8792L16.1633 18.7922C17.1007 19.2142 18.1745 18.5933 18.2785 17.5694L18.5027 15.3553C18.6851 13.5482 21.3149 13.5482 21.4973 15.3553Z" fill="white"/>
</svg>
