<svg width="276" height="37" viewBox="0 0 276 37" fill="none" xmlns="http://www.w3.org/2000/svg">
<path d="M26.0909 12C25.7159 10.8523 25.2216 9.82386 24.608 8.91477C24.0057 7.99432 23.2841 7.21023 22.4432 6.5625C21.6136 5.91477 20.6705 5.42045 19.6136 5.07954C18.5568 4.73864 17.3977 4.56818 16.1364 4.56818C14.0682 4.56818 12.1875 5.10227 10.4943 6.17045C8.80114 7.23864 7.45455 8.8125 6.45455 10.892C5.45455 12.9716 4.95455 15.5227 4.95455 18.5455C4.95455 21.5682 5.46023 24.1193 6.47159 26.1989C7.48295 28.2784 8.85227 29.8523 10.5795 30.9205C12.3068 31.9886 14.25 32.5227 16.4091 32.5227C18.4091 32.5227 20.1705 32.0966 21.6932 31.2443C23.2273 30.3807 24.4205 29.1648 25.2727 27.5966C26.1364 26.017 26.5682 24.1591 26.5682 22.0227L27.8636 22.2955H17.3636V18.5455H30.6591V22.2955C30.6591 25.1705 30.0455 27.6705 28.8182 29.7955C27.6023 31.9205 25.9205 33.5682 23.7727 34.7386C21.6364 35.8977 19.1818 36.4773 16.4091 36.4773C13.3182 36.4773 10.6023 35.75 8.26136 34.2955C5.93182 32.8409 4.11364 30.7727 2.80682 28.0909C1.51136 25.4091 0.863636 22.2273 0.863636 18.5455C0.863636 15.7841 1.23295 13.3011 1.97159 11.0966C2.72159 8.88068 3.77841 6.99432 5.14205 5.4375C6.50568 3.88068 8.11932 2.6875 9.98295 1.85795C11.8466 1.02841 13.8977 0.613635 16.1364 0.613635C17.9773 0.613635 19.6932 0.892044 21.2841 1.44886C22.8864 1.99432 24.3125 2.77273 25.5625 3.78409C26.8239 4.78409 27.875 5.98295 28.7159 7.38068C29.5568 8.76705 30.1364 10.3068 30.4545 12H26.0909ZM38.2528 36H33.821L46.6392 1.09091H51.0028L63.821 36H59.3892L48.9574 6.61364H48.6847L38.2528 36ZM39.8892 22.3636H57.7528V26.1136H39.8892V22.3636ZM113.031 16.6705V20.4205H65.0312V16.6705H113.031ZM117.259 36V1.09091H129.054C131.781 1.09091 134.02 1.55682 135.77 2.48864C137.52 3.40909 138.815 4.67614 139.656 6.28977C140.497 7.90341 140.918 9.73864 140.918 11.7955C140.918 13.8523 140.497 15.6761 139.656 17.267C138.815 18.858 137.526 20.108 135.787 21.017C134.048 21.9148 131.827 22.3636 129.122 22.3636H119.577V18.5455H128.986C130.849 18.5455 132.349 18.2727 133.486 17.7273C134.634 17.1818 135.463 16.4091 135.974 15.4091C136.497 14.3977 136.759 13.1932 136.759 11.7955C136.759 10.3977 136.497 9.17614 135.974 8.13068C135.452 7.08523 134.616 6.27841 133.469 5.71023C132.321 5.13068 130.804 4.84091 128.918 4.84091H121.486V36H117.259ZM133.69 20.3182L142.281 36H137.372L128.918 20.3182H133.69ZM152.189 1.09091V36H147.962V1.09091H152.189ZM175.119 16.6705V20.4205H159.847V16.6705H175.119ZM182.743 36V1.09091H186.97V16.6364H205.584V1.09091H209.811V36H205.584V20.3864H186.97V36H182.743ZM246.365 12H242.138C241.888 10.7841 241.45 9.71591 240.825 8.79545C240.212 7.875 239.462 7.10227 238.575 6.47727C237.7 5.84091 236.729 5.36364 235.661 5.04545C234.592 4.72727 233.479 4.56818 232.32 4.56818C230.206 4.56818 228.291 5.10227 226.575 6.17045C224.871 7.23864 223.513 8.8125 222.501 10.892C221.501 12.9716 221.001 15.5227 221.001 18.5455C221.001 21.5682 221.501 24.1193 222.501 26.1989C223.513 28.2784 224.871 29.8523 226.575 30.9205C228.291 31.9886 230.206 32.5227 232.32 32.5227C233.479 32.5227 234.592 32.3636 235.661 32.0455C236.729 31.7273 237.7 31.2557 238.575 30.6307C239.462 29.9943 240.212 29.2159 240.825 28.2955C241.45 27.3636 241.888 26.2955 242.138 25.0909H246.365C246.047 26.875 245.467 28.4716 244.626 29.8807C243.786 31.2898 242.74 32.4886 241.49 33.4773C240.24 34.4545 238.837 35.1989 237.28 35.7102C235.734 36.2216 234.081 36.4773 232.32 36.4773C229.342 36.4773 226.695 35.75 224.376 34.2955C222.058 32.8409 220.234 30.7727 218.905 28.0909C217.575 25.4091 216.911 22.2273 216.911 18.5455C216.911 14.8636 217.575 11.6818 218.905 9C220.234 6.31818 222.058 4.25 224.376 2.79545C226.695 1.34091 229.342 0.613635 232.32 0.613635C234.081 0.613635 235.734 0.869317 237.28 1.38068C238.837 1.89205 240.24 2.64205 241.49 3.63068C242.74 4.60795 243.786 5.80114 244.626 7.21023C245.467 8.60795 246.047 10.2045 246.365 12ZM268.844 13.6364L263.287 1.09091H265.537L269.423 10.2955L273.31 1.09091H275.56L270.003 13.6364H268.844ZM262.878 13.6364V1.09091H265.06V13.6364H262.878ZM273.787 13.6364V1.09091H275.969V13.6364H273.787ZM254.696 13.6364V2.18182H256.878V13.6364H254.696ZM250.878 3V1.09091H260.696V3H250.878Z" fill="black"/>
</svg>
